<?xml version="1.0" encoding="utf-8"?>
<!-- Generator: Adobe Illustrator 27.4.0, SVG Export Plug-In . SVG Version: 6.00 Build 0)  -->
<svg version="1.1" id="Layer_1" xmlns="http://www.w3.org/2000/svg" xmlns:xlink="http://www.w3.org/1999/xlink" x="0px" y="0px"
	 viewBox="0 0 700 700" style="enable-background:new 0 0 700 700;" xml:space="preserve">
<style type="text/css">
	.st0{fill:#FFFFFF;stroke:#231F20;stroke-miterlimit:10;}
</style>
<g>
	<path class="st0" d="M209.8,139.8c8.9-8.9,23.4-8.9,32.4,0L350,247.7l107.8-107.8c8.9-8.9,23.4-8.9,32.4,0c8.9,8.9,8.9,23.4,0,32.4
		L382.4,280l107.8,107.8c8.9,8.9,8.9,23.4,0,32.4c-8.9,8.9-23.4,8.9-32.4,0L350,312.4L242.2,420.2c-8.9,8.9-23.4,8.9-32.4,0
		c-8.9-8.9-8.9-23.4,0-32.4L317.7,280L209.8,172.2C200.9,163.2,200.9,148.7,209.8,139.8L209.8,139.8z"/>
</g>
</svg>
