<?xml version="1.0" encoding="utf-8"?>
<!-- Generator: Adobe Illustrator 27.4.0, SVG Export Plug-In . SVG Version: 6.00 Build 0)  -->
<svg version="1.1" id="Layer_1" xmlns="http://www.w3.org/2000/svg" xmlns:xlink="http://www.w3.org/1999/xlink" x="0px" y="0px"
	 viewBox="0 0 700 700" style="enable-background:new 0 0 700 700;" xml:space="preserve">
<style type="text/css">
	.st0{fill-rule:evenodd;clip-rule:evenodd;fill:#FFFFFF;stroke:#231F20;stroke-width:2;stroke-miterlimit:10;}
</style>
<g>
	<path class="st0" d="M350.8,72.3l112.7,65.6L403,173.2l-52.1-30.3l-11.8,6.7c15.1,25.2,30.3,50.4,45.4,75.7
		c-33.6,18.5-68.9,38.7-102.6,57.2c-15.1-25.2-30.3-48.8-45.4-74l-5,3.4v63.9l-60.5-35.3v-63.9l65.6-38.7l57.2,92.5l26.9-15.1
		l-55.5-92.5L350.8,72.3L350.8,72.3z"/>
	<path class="st0" d="M492.1,154.7l38.7,21.9v206.9c-60.5,35.3-121.1,70.6-179.9,104.3L170.9,383.4v-111l60.5,37v38.7l119.4,68.9
		l117.7-68.9V211.9l-37-21.9L492.1,154.7L492.1,154.7z"/>
</g>
</svg>
