<?xml version="1.0" encoding="utf-8"?>
<!-- Generator: Adobe Illustrator 27.4.0, SVG Export Plug-In . SVG Version: 6.00 Build 0)  -->
<svg version="1.1" id="Layer_1" xmlns="http://www.w3.org/2000/svg" xmlns:xlink="http://www.w3.org/1999/xlink" x="0px" y="0px"
	 viewBox="0 0 700 700" style="enable-background:new 0 0 700 700;" xml:space="preserve">
<style type="text/css">
	.st0{fill:#FFFFFF;stroke:#231F20;stroke-width:2;stroke-miterlimit:10;}
</style>
<g>
	<path class="st0" d="M151.8,268.3c-3.1,0-6.1,1.2-8.4,3.4s-3.5,5.2-3.5,8.3s1.3,6.1,3.5,8.3s5.2,3.4,8.4,3.4h396.3
		c3.1,0,6.1-1.2,8.4-3.4s3.5-5.2,3.5-8.3s-1.3-6.1-3.5-8.3s-5.2-3.4-8.4-3.4H151.8z"/>
	<path class="st0" d="M151.8,151.7c-3.1,0-6.1,1.2-8.4,3.4c-2.2,2.2-3.5,5.2-3.5,8.3c0,3.1,1.3,6.1,3.5,8.3c2.2,2.2,5.2,3.4,8.4,3.4
		h396.3c3.1,0,6.1-1.2,8.4-3.4c2.2-2.2,3.5-5.2,3.5-8.3c0-3.1-1.3-6.1-3.5-8.3c-2.2-2.2-5.2-3.4-8.4-3.4H151.8z"/>
	<path class="st0" d="M151.8,385c-3.1,0-6.1,1.2-8.4,3.4c-2.2,2.2-3.5,5.2-3.5,8.3c0,3.1,1.2,6.1,3.5,8.3c2.2,2.2,5.2,3.4,8.4,3.4
		h396.3c3.1,0,6.1-1.2,8.4-3.4c2.2-2.2,3.5-5.2,3.5-8.3c0-3.1-1.2-6.1-3.5-8.3c-2.2-2.2-5.2-3.4-8.4-3.4H151.8z"/>
</g>
</svg>
