<svg xmlns="http://www.w3.org/2000/svg" width="38.083" height="38.084" viewBox="0 0 38.083 38.084">
  <path id="noun-sun-1715295" d="M106.786,27.6A9.288,9.288,0,1,1,97.5,36.888,9.289,9.289,0,0,1,106.786,27.6ZM92.5,23.481l.979-.979,6.17,6.151-1,1ZM88.116,42.523l-.358-1.336,8.412-2.268.366,1.363Zm14.3,13.319-1.337-.358,2.242-8.419,1.363.365-2.268,8.413ZM121.1,50.119l-.978.979-6.171-6.151,1-1Zm4.386-19.042.358,1.336-8.413,2.268-.366-1.363ZM101.756,20.652l1.337-.358,1.589,5.876-1.363.366-1.562-5.884ZM95.336,49.241l-.979-.979,4.3-4.314,1,1-4.314,4.295Zm16.505,3.707-1.336.358-1.588-5.876,1.363-.365,1.562,5.884Zm6.42-28.589.979.979-4.3,4.314-1-1ZM90.293,33.094l.358-1.337,5.884,1.563-.366,1.363ZM123.3,40.507l-.358,1.336-5.884-1.562.366-1.363Zm-12.12-22.749,1.337.358-2.242,8.419-1.363-.364,2.268-8.413Z" transform="translate(-87.758 -17.758)" fill-rule="evenodd"/>
</svg>
